<svg xmlns="http://www.w3.org/2000/svg" width="1500" height="1000" viewBox="0 0 1500 1000">
<title>07 - 09 and 10</title>
<g data-name="Backgrounds">
<rect x="0" y="0" width="1500" height="1000" fill="#F7F6F1"/>
</g>
<g data-name="Typography">
<text x="54" y="45" font-family="Arial, Helvetica, sans-serif" font-weight="700" font-size="13" fill="#1D1D1F">JIE DEAN ZHONG</text>
<text x="995" y="45" font-family="Arial, Helvetica, sans-serif" font-weight="400" font-size="10" fill="#686E6A">PERSONAL IDENTITY / EXPLORATIONS / 04 OCT 2026</text>
</g>
<g data-name="Guides">
<path d="M 54 70 L 1446 70" fill="none" stroke="#D8DDD6" stroke-width="1" stroke-linecap="butt" stroke-linejoin="round"><title>Rule</title></path>
</g>
<g data-name="Typography">
<text x="54" y="125" font-family="Arial Unicode MS, Hiragino Sans GB, sans-serif" font-weight="400" font-size="35" fill="#1D1D1F">切割与组装</text>
<text x="56" y="163" font-family="Arial Unicode MS, Hiragino Sans GB, sans-serif" font-weight="400" font-size="15" fill="#686E6A">每个方案都展示原始矢量、反白、姓名组合与实际大小；尺寸标注指 100 × 100 设计框。</text>
</g>
<g data-name="Guides">
<path d="M 54 940 L 1446 940" fill="none" stroke="#D8DDD6" stroke-width="1" stroke-linecap="butt" stroke-linejoin="round"><title>Rule</title></path>
</g>
<g data-name="Typography">
<text x="54" y="968" font-family="Arial Unicode MS, Hiragino Sans GB, sans-serif" font-weight="400" font-size="11" fill="#686E6A">杰 / 原创矢量草稿 · 供选方向，非最终品牌规范</text>
<text x="1387" y="968" font-family="Arial, Helvetica, sans-serif" font-weight="400" font-size="11" fill="#686E6A">07 / 15</text>
</g>
<g data-name="Guides">
<path d="M 750 206 L 750 905" fill="none" stroke="#D8DDD6" stroke-width="1" stroke-linecap="butt" stroke-linejoin="round"><title>Rule</title></path>
</g>
<g data-name="Typography">
<text x="54" y="219" font-family="Arial Unicode MS, Hiragino Sans GB, sans-serif" font-weight="400" font-size="25" fill="#1D1D1F">09  切口 / Stencil</text>
<text x="54" y="253" font-family="Arial Unicode MS, Hiragino Sans GB, sans-serif" font-weight="400" font-size="15" fill="#686E6A">把实验与构造过程留在字里</text>
</g>
<g data-name="09 / 切口 / Stencil">
<path d="M 205.4 302.8 L 236.6 302.8 L 236.6 334 L 205.4 334 Z" fill="#1D1D1F" stroke="none" stroke-width="0.0" stroke-linecap="butt" stroke-linejoin="round"><title>Stem above</title></path>
<path d="M 111.8 349.6 L 197.6 349.6 L 197.6 378.2 L 111.8 378.2 Z" fill="#1D1D1F" stroke="none" stroke-width="0.0" stroke-linecap="butt" stroke-linejoin="round"><title>Beam left</title></path>
<path d="M 244.4 349.6 L 330.2 349.6 L 330.2 378.2 L 244.4 378.2 Z" fill="#1D1D1F" stroke="none" stroke-width="0.0" stroke-linecap="butt" stroke-linejoin="round"><title>Beam right</title></path>
<path d="M 205.4 349.6 L 236.6 349.6 L 236.6 477 L 205.4 477 Z" fill="#1D1D1F" stroke="none" stroke-width="0.0" stroke-linecap="butt" stroke-linejoin="round"><title>Stem middle</title></path>
<path d="M 192.4 391.2 L 202.8 422.4 L 135.2 477 L 111.8 477 L 111.8 453.6 Z" fill="#1D1D1F" stroke="none" stroke-width="0.0" stroke-linecap="butt" stroke-linejoin="round"><title>Cut left branch</title></path>
<path d="M 249.6 391.2 L 330.2 453.6 L 330.2 477 L 306.8 477 L 239.2 422.4 Z" fill="#1D1D1F" stroke="none" stroke-width="0.0" stroke-linecap="butt" stroke-linejoin="round"><title>Cut right branch</title></path>
<path d="M 111.8 500.4 L 143 500.4 L 143 531.6 L 111.8 531.6 Z" fill="#1D1D1F" stroke="none" stroke-width="0.0" stroke-linecap="butt" stroke-linejoin="round"><title>Datum 0</title></path>
<path d="M 174.2 500.4 L 205.4 500.4 L 205.4 531.6 L 174.2 531.6 Z" fill="#1D1D1F" stroke="none" stroke-width="0.0" stroke-linecap="butt" stroke-linejoin="round"><title>Datum 1</title></path>
<path d="M 236.6 500.4 L 267.8 500.4 L 267.8 531.6 L 236.6 531.6 Z" fill="#1D1D1F" stroke="none" stroke-width="0.0" stroke-linecap="butt" stroke-linejoin="round"><title>Datum 2</title></path>
<path d="M 299 500.4 L 330.2 500.4 L 330.2 531.6 L 299 531.6 Z" fill="#1D1D1F" stroke="none" stroke-width="0.0" stroke-linecap="butt" stroke-linejoin="round"><title>Datum 3</title></path>
</g>
<g data-name="Backgrounds">
<rect x="464" y="324" width="180" height="180" fill="#1D1D1F"/>
</g>
<g data-name="09 / Reverse">
<path d="M 545.12 351.84 L 562.88 351.84 L 562.88 369.6 L 545.12 369.6 Z" fill="#FFFFFF" stroke="none" stroke-width="0.0" stroke-linecap="butt" stroke-linejoin="round"><title>Stem above</title></path>
<path d="M 491.84 378.48 L 540.68 378.48 L 540.68 394.76 L 491.84 394.76 Z" fill="#FFFFFF" stroke="none" stroke-width="0.0" stroke-linecap="butt" stroke-linejoin="round"><title>Beam left</title></path>
<path d="M 567.32 378.48 L 616.16 378.48 L 616.16 394.76 L 567.32 394.76 Z" fill="#FFFFFF" stroke="none" stroke-width="0.0" stroke-linecap="butt" stroke-linejoin="round"><title>Beam right</title></path>
<path d="M 545.12 378.48 L 562.88 378.48 L 562.88 451 L 545.12 451 Z" fill="#FFFFFF" stroke="none" stroke-width="0.0" stroke-linecap="butt" stroke-linejoin="round"><title>Stem middle</title></path>
<path d="M 537.72 402.16 L 543.64 419.92 L 505.16 451 L 491.84 451 L 491.84 437.68 Z" fill="#FFFFFF" stroke="none" stroke-width="0.0" stroke-linecap="butt" stroke-linejoin="round"><title>Cut left branch</title></path>
<path d="M 570.28 402.16 L 616.16 437.68 L 616.16 451 L 602.84 451 L 564.36 419.92 Z" fill="#FFFFFF" stroke="none" stroke-width="0.0" stroke-linecap="butt" stroke-linejoin="round"><title>Cut right branch</title></path>
<path d="M 491.84 464.32 L 509.6 464.32 L 509.6 482.08 L 491.84 482.08 Z" fill="#FFFFFF" stroke="none" stroke-width="0.0" stroke-linecap="butt" stroke-linejoin="round"><title>Datum 0</title></path>
<path d="M 527.36 464.32 L 545.12 464.32 L 545.12 482.08 L 527.36 482.08 Z" fill="#FFFFFF" stroke="none" stroke-width="0.0" stroke-linecap="butt" stroke-linejoin="round"><title>Datum 1</title></path>
<path d="M 562.88 464.32 L 580.64 464.32 L 580.64 482.08 L 562.88 482.08 Z" fill="#FFFFFF" stroke="none" stroke-width="0.0" stroke-linecap="butt" stroke-linejoin="round"><title>Datum 2</title></path>
<path d="M 598.4 464.32 L 616.16 464.32 L 616.16 482.08 L 598.4 482.08 Z" fill="#FFFFFF" stroke="none" stroke-width="0.0" stroke-linecap="butt" stroke-linejoin="round"><title>Datum 3</title></path>
</g>
<g data-name="Typography">
<text x="84" y="570" font-family="Arial, Helvetica, sans-serif" font-weight="400" font-size="10" fill="#686E6A">MONOCHROME / MASTER</text>
<text x="464" y="535" font-family="Arial, Helvetica, sans-serif" font-weight="400" font-size="10" fill="#686E6A">REVERSED</text>
<text x="54" y="614" font-family="Arial Unicode MS, Hiragino Sans GB, sans-serif" font-weight="400" font-size="15" fill="#686E6A">少量真实断口，让骨架与组装关系同时可见。</text>
</g>
<g data-name="Backgrounds">
<rect x="54" y="671" width="648" height="84" fill="#1D1D1F"/>
</g>
<g data-name="09 / Header lockup">
<path d="M 93.8 693.6 L 99.2 693.6 L 99.2 699 L 93.8 699 Z" fill="#FFFFFF" stroke="none" stroke-width="0.0" stroke-linecap="butt" stroke-linejoin="round"><title>Stem above</title></path>
<path d="M 77.6 701.7 L 92.45 701.7 L 92.45 706.65 L 77.6 706.65 Z" fill="#FFFFFF" stroke="none" stroke-width="0.0" stroke-linecap="butt" stroke-linejoin="round"><title>Beam left</title></path>
<path d="M 100.55 701.7 L 115.4 701.7 L 115.4 706.65 L 100.55 706.65 Z" fill="#FFFFFF" stroke="none" stroke-width="0.0" stroke-linecap="butt" stroke-linejoin="round"><title>Beam right</title></path>
<path d="M 93.8 701.7 L 99.2 701.7 L 99.2 723.75 L 93.8 723.75 Z" fill="#FFFFFF" stroke="none" stroke-width="0.0" stroke-linecap="butt" stroke-linejoin="round"><title>Stem middle</title></path>
<path d="M 91.55 708.9 L 93.35 714.3 L 81.65 723.75 L 77.6 723.75 L 77.6 719.7 Z" fill="#FFFFFF" stroke="none" stroke-width="0.0" stroke-linecap="butt" stroke-linejoin="round"><title>Cut left branch</title></path>
<path d="M 101.45 708.9 L 115.4 719.7 L 115.4 723.75 L 111.35 723.75 L 99.65 714.3 Z" fill="#FFFFFF" stroke="none" stroke-width="0.0" stroke-linecap="butt" stroke-linejoin="round"><title>Cut right branch</title></path>
<path d="M 77.6 727.8 L 83 727.8 L 83 733.2 L 77.6 733.2 Z" fill="#FFFFFF" stroke="none" stroke-width="0.0" stroke-linecap="butt" stroke-linejoin="round"><title>Datum 0</title></path>
<path d="M 88.4 727.8 L 93.8 727.8 L 93.8 733.2 L 88.4 733.2 Z" fill="#FFFFFF" stroke="none" stroke-width="0.0" stroke-linecap="butt" stroke-linejoin="round"><title>Datum 1</title></path>
<path d="M 99.2 727.8 L 104.6 727.8 L 104.6 733.2 L 99.2 733.2 Z" fill="#FFFFFF" stroke="none" stroke-width="0.0" stroke-linecap="butt" stroke-linejoin="round"><title>Datum 2</title></path>
<path d="M 110 727.8 L 115.4 727.8 L 115.4 733.2 L 110 733.2 Z" fill="#FFFFFF" stroke="none" stroke-width="0.0" stroke-linecap="butt" stroke-linejoin="round"><title>Datum 3</title></path>
</g>
<g data-name="Typography">
<text x="137" y="714" font-family="Arial, Helvetica, sans-serif" font-weight="400" font-size="23" fill="#FFFFFF">Jie Dean Zhong</text>
<text x="484" y="714" font-family="Arial, Helvetica, sans-serif" font-weight="400" font-size="12" fill="#D0D5CF">Research  /  Writing</text>
</g>
<g data-name="09 / Size 16">
<path d="M 85.04 820.28 L 86.96 820.28 L 86.96 822.2 L 85.04 822.2 Z" fill="#1D1D1F" stroke="none" stroke-width="0.0" stroke-linecap="butt" stroke-linejoin="round"><title>Stem above</title></path>
<path d="M 79.28 823.16 L 84.56 823.16 L 84.56 824.92 L 79.28 824.92 Z" fill="#1D1D1F" stroke="none" stroke-width="0.0" stroke-linecap="butt" stroke-linejoin="round"><title>Beam left</title></path>
<path d="M 87.44 823.16 L 92.72 823.16 L 92.72 824.92 L 87.44 824.92 Z" fill="#1D1D1F" stroke="none" stroke-width="0.0" stroke-linecap="butt" stroke-linejoin="round"><title>Beam right</title></path>
<path d="M 85.04 823.16 L 86.96 823.16 L 86.96 831 L 85.04 831 Z" fill="#1D1D1F" stroke="none" stroke-width="0.0" stroke-linecap="butt" stroke-linejoin="round"><title>Stem middle</title></path>
<path d="M 84.24 825.72 L 84.88 827.64 L 80.72 831 L 79.28 831 L 79.28 829.56 Z" fill="#1D1D1F" stroke="none" stroke-width="0.0" stroke-linecap="butt" stroke-linejoin="round"><title>Cut left branch</title></path>
<path d="M 87.76 825.72 L 92.72 829.56 L 92.72 831 L 91.28 831 L 87.12 827.64 Z" fill="#1D1D1F" stroke="none" stroke-width="0.0" stroke-linecap="butt" stroke-linejoin="round"><title>Cut right branch</title></path>
<path d="M 79.28 832.44 L 81.2 832.44 L 81.2 834.36 L 79.28 834.36 Z" fill="#1D1D1F" stroke="none" stroke-width="0.0" stroke-linecap="butt" stroke-linejoin="round"><title>Datum 0</title></path>
<path d="M 83.12 832.44 L 85.04 832.44 L 85.04 834.36 L 83.12 834.36 Z" fill="#1D1D1F" stroke="none" stroke-width="0.0" stroke-linecap="butt" stroke-linejoin="round"><title>Datum 1</title></path>
<path d="M 86.96 832.44 L 88.88 832.44 L 88.88 834.36 L 86.96 834.36 Z" fill="#1D1D1F" stroke="none" stroke-width="0.0" stroke-linecap="butt" stroke-linejoin="round"><title>Datum 2</title></path>
<path d="M 90.8 832.44 L 92.72 832.44 L 92.72 834.36 L 90.8 834.36 Z" fill="#1D1D1F" stroke="none" stroke-width="0.0" stroke-linecap="butt" stroke-linejoin="round"><title>Datum 3</title></path>
</g>
<g data-name="Typography">
<text x="78" y="859" font-family="Arial, Helvetica, sans-serif" font-weight="400" font-size="10" fill="#686E6A">16 px</text>
</g>
<g data-name="09 / Size 24">
<path d="M 178.56 812.92 L 181.44 812.92 L 181.44 815.8 L 178.56 815.8 Z" fill="#1D1D1F" stroke="none" stroke-width="0.0" stroke-linecap="butt" stroke-linejoin="round"><title>Stem above</title></path>
<path d="M 169.92 817.24 L 177.84 817.24 L 177.84 819.88 L 169.92 819.88 Z" fill="#1D1D1F" stroke="none" stroke-width="0.0" stroke-linecap="butt" stroke-linejoin="round"><title>Beam left</title></path>
<path d="M 182.16 817.24 L 190.08 817.24 L 190.08 819.88 L 182.16 819.88 Z" fill="#1D1D1F" stroke="none" stroke-width="0.0" stroke-linecap="butt" stroke-linejoin="round"><title>Beam right</title></path>
<path d="M 178.56 817.24 L 181.44 817.24 L 181.44 829 L 178.56 829 Z" fill="#1D1D1F" stroke="none" stroke-width="0.0" stroke-linecap="butt" stroke-linejoin="round"><title>Stem middle</title></path>
<path d="M 177.36 821.08 L 178.32 823.96 L 172.08 829 L 169.92 829 L 169.92 826.84 Z" fill="#1D1D1F" stroke="none" stroke-width="0.0" stroke-linecap="butt" stroke-linejoin="round"><title>Cut left branch</title></path>
<path d="M 182.64 821.08 L 190.08 826.84 L 190.08 829 L 187.92 829 L 181.68 823.96 Z" fill="#1D1D1F" stroke="none" stroke-width="0.0" stroke-linecap="butt" stroke-linejoin="round"><title>Cut right branch</title></path>
<path d="M 169.92 831.16 L 172.8 831.16 L 172.8 834.04 L 169.92 834.04 Z" fill="#1D1D1F" stroke="none" stroke-width="0.0" stroke-linecap="butt" stroke-linejoin="round"><title>Datum 0</title></path>
<path d="M 175.68 831.16 L 178.56 831.16 L 178.56 834.04 L 175.68 834.04 Z" fill="#1D1D1F" stroke="none" stroke-width="0.0" stroke-linecap="butt" stroke-linejoin="round"><title>Datum 1</title></path>
<path d="M 181.44 831.16 L 184.32 831.16 L 184.32 834.04 L 181.44 834.04 Z" fill="#1D1D1F" stroke="none" stroke-width="0.0" stroke-linecap="butt" stroke-linejoin="round"><title>Datum 2</title></path>
<path d="M 187.2 831.16 L 190.08 831.16 L 190.08 834.04 L 187.2 834.04 Z" fill="#1D1D1F" stroke="none" stroke-width="0.0" stroke-linecap="butt" stroke-linejoin="round"><title>Datum 3</title></path>
</g>
<g data-name="Typography">
<text x="168" y="859" font-family="Arial, Helvetica, sans-serif" font-weight="400" font-size="10" fill="#686E6A">24 px</text>
</g>
<g data-name="09 / Size 32">
<path d="M 272.08 805.56 L 275.92 805.56 L 275.92 809.4 L 272.08 809.4 Z" fill="#1D1D1F" stroke="none" stroke-width="0.0" stroke-linecap="butt" stroke-linejoin="round"><title>Stem above</title></path>
<path d="M 260.56 811.32 L 271.12 811.32 L 271.12 814.84 L 260.56 814.84 Z" fill="#1D1D1F" stroke="none" stroke-width="0.0" stroke-linecap="butt" stroke-linejoin="round"><title>Beam left</title></path>
<path d="M 276.88 811.32 L 287.44 811.32 L 287.44 814.84 L 276.88 814.84 Z" fill="#1D1D1F" stroke="none" stroke-width="0.0" stroke-linecap="butt" stroke-linejoin="round"><title>Beam right</title></path>
<path d="M 272.08 811.32 L 275.92 811.32 L 275.92 827 L 272.08 827 Z" fill="#1D1D1F" stroke="none" stroke-width="0.0" stroke-linecap="butt" stroke-linejoin="round"><title>Stem middle</title></path>
<path d="M 270.48 816.44 L 271.76 820.28 L 263.44 827 L 260.56 827 L 260.56 824.12 Z" fill="#1D1D1F" stroke="none" stroke-width="0.0" stroke-linecap="butt" stroke-linejoin="round"><title>Cut left branch</title></path>
<path d="M 277.52 816.44 L 287.44 824.12 L 287.44 827 L 284.56 827 L 276.24 820.28 Z" fill="#1D1D1F" stroke="none" stroke-width="0.0" stroke-linecap="butt" stroke-linejoin="round"><title>Cut right branch</title></path>
<path d="M 260.56 829.88 L 264.4 829.88 L 264.4 833.72 L 260.56 833.72 Z" fill="#1D1D1F" stroke="none" stroke-width="0.0" stroke-linecap="butt" stroke-linejoin="round"><title>Datum 0</title></path>
<path d="M 268.24 829.88 L 272.08 829.88 L 272.08 833.72 L 268.24 833.72 Z" fill="#1D1D1F" stroke="none" stroke-width="0.0" stroke-linecap="butt" stroke-linejoin="round"><title>Datum 1</title></path>
<path d="M 275.92 829.88 L 279.76 829.88 L 279.76 833.72 L 275.92 833.72 Z" fill="#1D1D1F" stroke="none" stroke-width="0.0" stroke-linecap="butt" stroke-linejoin="round"><title>Datum 2</title></path>
<path d="M 283.6 829.88 L 287.44 829.88 L 287.44 833.72 L 283.6 833.72 Z" fill="#1D1D1F" stroke="none" stroke-width="0.0" stroke-linecap="butt" stroke-linejoin="round"><title>Datum 3</title></path>
</g>
<g data-name="Typography">
<text x="258" y="859" font-family="Arial, Helvetica, sans-serif" font-weight="400" font-size="10" fill="#686E6A">32 px</text>
</g>
<g data-name="09 / Size 48">
<path d="M 369.12 790.84 L 374.88 790.84 L 374.88 796.6 L 369.12 796.6 Z" fill="#1D1D1F" stroke="none" stroke-width="0.0" stroke-linecap="butt" stroke-linejoin="round"><title>Stem above</title></path>
<path d="M 351.84 799.48 L 367.68 799.48 L 367.68 804.76 L 351.84 804.76 Z" fill="#1D1D1F" stroke="none" stroke-width="0.0" stroke-linecap="butt" stroke-linejoin="round"><title>Beam left</title></path>
<path d="M 376.32 799.48 L 392.16 799.48 L 392.16 804.76 L 376.32 804.76 Z" fill="#1D1D1F" stroke="none" stroke-width="0.0" stroke-linecap="butt" stroke-linejoin="round"><title>Beam right</title></path>
<path d="M 369.12 799.48 L 374.88 799.48 L 374.88 823 L 369.12 823 Z" fill="#1D1D1F" stroke="none" stroke-width="0.0" stroke-linecap="butt" stroke-linejoin="round"><title>Stem middle</title></path>
<path d="M 366.72 807.16 L 368.64 812.92 L 356.16 823 L 351.84 823 L 351.84 818.68 Z" fill="#1D1D1F" stroke="none" stroke-width="0.0" stroke-linecap="butt" stroke-linejoin="round"><title>Cut left branch</title></path>
<path d="M 377.28 807.16 L 392.16 818.68 L 392.16 823 L 387.84 823 L 375.36 812.92 Z" fill="#1D1D1F" stroke="none" stroke-width="0.0" stroke-linecap="butt" stroke-linejoin="round"><title>Cut right branch</title></path>
<path d="M 351.84 827.32 L 357.6 827.32 L 357.6 833.08 L 351.84 833.08 Z" fill="#1D1D1F" stroke="none" stroke-width="0.0" stroke-linecap="butt" stroke-linejoin="round"><title>Datum 0</title></path>
<path d="M 363.36 827.32 L 369.12 827.32 L 369.12 833.08 L 363.36 833.08 Z" fill="#1D1D1F" stroke="none" stroke-width="0.0" stroke-linecap="butt" stroke-linejoin="round"><title>Datum 1</title></path>
<path d="M 374.88 827.32 L 380.64 827.32 L 380.64 833.08 L 374.88 833.08 Z" fill="#1D1D1F" stroke="none" stroke-width="0.0" stroke-linecap="butt" stroke-linejoin="round"><title>Datum 2</title></path>
<path d="M 386.4 827.32 L 392.16 827.32 L 392.16 833.08 L 386.4 833.08 Z" fill="#1D1D1F" stroke="none" stroke-width="0.0" stroke-linecap="butt" stroke-linejoin="round"><title>Datum 3</title></path>
</g>
<g data-name="Typography">
<text x="348" y="859" font-family="Arial, Helvetica, sans-serif" font-weight="400" font-size="10" fill="#686E6A">48 px</text>
<text x="443" y="796" font-family="Arial Unicode MS, Hiragino Sans GB, sans-serif" font-weight="400" font-size="13" fill="#686E6A">适合设计与研究交叉身份；最小尺寸断口</text>
<text x="443" y="818" font-family="Arial Unicode MS, Hiragino Sans GB, sans-serif" font-weight="400" font-size="13" fill="#686E6A">可能消失。</text>
<text x="798" y="219" font-family="Arial Unicode MS, Hiragino Sans GB, sans-serif" font-weight="400" font-size="25" fill="#1D1D1F">10  单元 / Cellular</text>
<text x="798" y="253" font-family="Arial Unicode MS, Hiragino Sans GB, sans-serif" font-weight="400" font-size="15" fill="#686E6A">相对独立的部件，组成一个整体</text>
</g>
<g data-name="10 / 单元 / Cellular">
<path d="M 965 310.6 L 965 339.2" fill="none" stroke="#1D1D1F" stroke-width="26.0" stroke-linecap="round" stroke-linejoin="round"><title>Top capsule</title></path>
<path d="M 876.6 367.8 L 928.6 367.8" fill="none" stroke="#1D1D1F" stroke-width="26.0" stroke-linecap="round" stroke-linejoin="round"><title>Beam capsule left</title></path>
<path d="M 1001.4 367.8 L 1053.4 367.8" fill="none" stroke="#1D1D1F" stroke-width="26.0" stroke-linecap="round" stroke-linejoin="round"><title>Beam capsule right</title></path>
<path d="M 965 378.2 L 965 461.4" fill="none" stroke="#1D1D1F" stroke-width="26.0" stroke-linecap="round" stroke-linejoin="round"><title>Central capsule</title></path>
<path d="M 926 406.8 L 874 453.6" fill="none" stroke="#1D1D1F" stroke-width="26.0" stroke-linecap="round" stroke-linejoin="round"><title>Left capsule</title></path>
<path d="M 1004 406.8 L 1056 453.6" fill="none" stroke="#1D1D1F" stroke-width="26.0" stroke-linecap="round" stroke-linejoin="round"><title>Right capsule</title></path>
<path d="M 881.8 500.4 L 887 516" fill="none" stroke="#1D1D1F" stroke-width="20.8" stroke-linecap="round" stroke-linejoin="round"><title>Spore 0</title></path>
<path d="M 936.4 500.4 L 941.6 516" fill="none" stroke="#1D1D1F" stroke-width="20.8" stroke-linecap="round" stroke-linejoin="round"><title>Spore 1</title></path>
<path d="M 991 500.4 L 996.2 516" fill="none" stroke="#1D1D1F" stroke-width="20.8" stroke-linecap="round" stroke-linejoin="round"><title>Spore 2</title></path>
<path d="M 1045.6 500.4 L 1050.8 516" fill="none" stroke="#1D1D1F" stroke-width="20.8" stroke-linecap="round" stroke-linejoin="round"><title>Spore 3</title></path>
</g>
<g data-name="Backgrounds">
<rect x="1208" y="324" width="180" height="180" fill="#1D1D1F"/>
</g>
<g data-name="10 / Reverse">
<path d="M 1298 356.28 L 1298 372.56" fill="none" stroke="#FFFFFF" stroke-width="14.8" stroke-linecap="round" stroke-linejoin="round"><title>Top capsule</title></path>
<path d="M 1247.68 388.84 L 1277.28 388.84" fill="none" stroke="#FFFFFF" stroke-width="14.8" stroke-linecap="round" stroke-linejoin="round"><title>Beam capsule left</title></path>
<path d="M 1318.72 388.84 L 1348.32 388.84" fill="none" stroke="#FFFFFF" stroke-width="14.8" stroke-linecap="round" stroke-linejoin="round"><title>Beam capsule right</title></path>
<path d="M 1298 394.76 L 1298 442.12" fill="none" stroke="#FFFFFF" stroke-width="14.8" stroke-linecap="round" stroke-linejoin="round"><title>Central capsule</title></path>
<path d="M 1275.8 411.04 L 1246.2 437.68" fill="none" stroke="#FFFFFF" stroke-width="14.8" stroke-linecap="round" stroke-linejoin="round"><title>Left capsule</title></path>
<path d="M 1320.2 411.04 L 1349.8 437.68" fill="none" stroke="#FFFFFF" stroke-width="14.8" stroke-linecap="round" stroke-linejoin="round"><title>Right capsule</title></path>
<path d="M 1250.64 464.32 L 1253.6 473.2" fill="none" stroke="#FFFFFF" stroke-width="11.84" stroke-linecap="round" stroke-linejoin="round"><title>Spore 0</title></path>
<path d="M 1281.72 464.32 L 1284.68 473.2" fill="none" stroke="#FFFFFF" stroke-width="11.84" stroke-linecap="round" stroke-linejoin="round"><title>Spore 1</title></path>
<path d="M 1312.8 464.32 L 1315.76 473.2" fill="none" stroke="#FFFFFF" stroke-width="11.84" stroke-linecap="round" stroke-linejoin="round"><title>Spore 2</title></path>
<path d="M 1343.88 464.32 L 1346.84 473.2" fill="none" stroke="#FFFFFF" stroke-width="11.84" stroke-linecap="round" stroke-linejoin="round"><title>Spore 3</title></path>
</g>
<g data-name="Typography">
<text x="828" y="570" font-family="Arial, Helvetica, sans-serif" font-weight="400" font-size="10" fill="#686E6A">MONOCHROME / MASTER</text>
<text x="1208" y="535" font-family="Arial, Helvetica, sans-serif" font-weight="400" font-size="10" fill="#686E6A">REVERSED</text>
<text x="798" y="614" font-family="Arial Unicode MS, Hiragino Sans GB, sans-serif" font-weight="400" font-size="15" fill="#686E6A">胶囊笔画与独立节点；保留“杰”的基本空间关系。</text>
</g>
<g data-name="Backgrounds">
<rect x="798" y="671" width="648" height="84" fill="#1D1D1F"/>
</g>
<g data-name="10 / Header lockup">
<path d="M 840.5 694.95 L 840.5 699.9" fill="none" stroke="#FFFFFF" stroke-width="4.5" stroke-linecap="round" stroke-linejoin="round"><title>Top capsule</title></path>
<path d="M 825.2 704.85 L 834.2 704.85" fill="none" stroke="#FFFFFF" stroke-width="4.5" stroke-linecap="round" stroke-linejoin="round"><title>Beam capsule left</title></path>
<path d="M 846.8 704.85 L 855.8 704.85" fill="none" stroke="#FFFFFF" stroke-width="4.5" stroke-linecap="round" stroke-linejoin="round"><title>Beam capsule right</title></path>
<path d="M 840.5 706.65 L 840.5 721.05" fill="none" stroke="#FFFFFF" stroke-width="4.5" stroke-linecap="round" stroke-linejoin="round"><title>Central capsule</title></path>
<path d="M 833.75 711.6 L 824.75 719.7" fill="none" stroke="#FFFFFF" stroke-width="4.5" stroke-linecap="round" stroke-linejoin="round"><title>Left capsule</title></path>
<path d="M 847.25 711.6 L 856.25 719.7" fill="none" stroke="#FFFFFF" stroke-width="4.5" stroke-linecap="round" stroke-linejoin="round"><title>Right capsule</title></path>
<path d="M 826.1 727.8 L 827 730.5" fill="none" stroke="#FFFFFF" stroke-width="3.6" stroke-linecap="round" stroke-linejoin="round"><title>Spore 0</title></path>
<path d="M 835.55 727.8 L 836.45 730.5" fill="none" stroke="#FFFFFF" stroke-width="3.6" stroke-linecap="round" stroke-linejoin="round"><title>Spore 1</title></path>
<path d="M 845 727.8 L 845.9 730.5" fill="none" stroke="#FFFFFF" stroke-width="3.6" stroke-linecap="round" stroke-linejoin="round"><title>Spore 2</title></path>
<path d="M 854.45 727.8 L 855.35 730.5" fill="none" stroke="#FFFFFF" stroke-width="3.6" stroke-linecap="round" stroke-linejoin="round"><title>Spore 3</title></path>
</g>
<g data-name="Typography">
<text x="881" y="714" font-family="Arial, Helvetica, sans-serif" font-weight="400" font-size="23" fill="#FFFFFF">Jie Dean Zhong</text>
<text x="1228" y="714" font-family="Arial, Helvetica, sans-serif" font-weight="400" font-size="12" fill="#D0D5CF">Research  /  Writing</text>
</g>
<g data-name="10 / Size 16">
<path d="M 830 820.76 L 830 822.52" fill="none" stroke="#1D1D1F" stroke-width="1.6" stroke-linecap="round" stroke-linejoin="round"><title>Top capsule</title></path>
<path d="M 824.56 824.28 L 827.76 824.28" fill="none" stroke="#1D1D1F" stroke-width="1.6" stroke-linecap="round" stroke-linejoin="round"><title>Beam capsule left</title></path>
<path d="M 832.24 824.28 L 835.44 824.28" fill="none" stroke="#1D1D1F" stroke-width="1.6" stroke-linecap="round" stroke-linejoin="round"><title>Beam capsule right</title></path>
<path d="M 830 824.92 L 830 830.04" fill="none" stroke="#1D1D1F" stroke-width="1.6" stroke-linecap="round" stroke-linejoin="round"><title>Central capsule</title></path>
<path d="M 827.6 826.68 L 824.4 829.56" fill="none" stroke="#1D1D1F" stroke-width="1.6" stroke-linecap="round" stroke-linejoin="round"><title>Left capsule</title></path>
<path d="M 832.4 826.68 L 835.6 829.56" fill="none" stroke="#1D1D1F" stroke-width="1.6" stroke-linecap="round" stroke-linejoin="round"><title>Right capsule</title></path>
<path d="M 824.88 832.44 L 825.2 833.4" fill="none" stroke="#1D1D1F" stroke-width="1.28" stroke-linecap="round" stroke-linejoin="round"><title>Spore 0</title></path>
<path d="M 828.24 832.44 L 828.56 833.4" fill="none" stroke="#1D1D1F" stroke-width="1.28" stroke-linecap="round" stroke-linejoin="round"><title>Spore 1</title></path>
<path d="M 831.6 832.44 L 831.92 833.4" fill="none" stroke="#1D1D1F" stroke-width="1.28" stroke-linecap="round" stroke-linejoin="round"><title>Spore 2</title></path>
<path d="M 834.96 832.44 L 835.28 833.4" fill="none" stroke="#1D1D1F" stroke-width="1.28" stroke-linecap="round" stroke-linejoin="round"><title>Spore 3</title></path>
</g>
<g data-name="Typography">
<text x="822" y="859" font-family="Arial, Helvetica, sans-serif" font-weight="400" font-size="10" fill="#686E6A">16 px</text>
</g>
<g data-name="10 / Size 24">
<path d="M 924 813.64 L 924 816.28" fill="none" stroke="#1D1D1F" stroke-width="2.4" stroke-linecap="round" stroke-linejoin="round"><title>Top capsule</title></path>
<path d="M 915.84 818.92 L 920.64 818.92" fill="none" stroke="#1D1D1F" stroke-width="2.4" stroke-linecap="round" stroke-linejoin="round"><title>Beam capsule left</title></path>
<path d="M 927.36 818.92 L 932.16 818.92" fill="none" stroke="#1D1D1F" stroke-width="2.4" stroke-linecap="round" stroke-linejoin="round"><title>Beam capsule right</title></path>
<path d="M 924 819.88 L 924 827.56" fill="none" stroke="#1D1D1F" stroke-width="2.4" stroke-linecap="round" stroke-linejoin="round"><title>Central capsule</title></path>
<path d="M 920.4 822.52 L 915.6 826.84" fill="none" stroke="#1D1D1F" stroke-width="2.4" stroke-linecap="round" stroke-linejoin="round"><title>Left capsule</title></path>
<path d="M 927.6 822.52 L 932.4 826.84" fill="none" stroke="#1D1D1F" stroke-width="2.4" stroke-linecap="round" stroke-linejoin="round"><title>Right capsule</title></path>
<path d="M 916.32 831.16 L 916.8 832.6" fill="none" stroke="#1D1D1F" stroke-width="1.92" stroke-linecap="round" stroke-linejoin="round"><title>Spore 0</title></path>
<path d="M 921.36 831.16 L 921.84 832.6" fill="none" stroke="#1D1D1F" stroke-width="1.92" stroke-linecap="round" stroke-linejoin="round"><title>Spore 1</title></path>
<path d="M 926.4 831.16 L 926.88 832.6" fill="none" stroke="#1D1D1F" stroke-width="1.92" stroke-linecap="round" stroke-linejoin="round"><title>Spore 2</title></path>
<path d="M 931.44 831.16 L 931.92 832.6" fill="none" stroke="#1D1D1F" stroke-width="1.92" stroke-linecap="round" stroke-linejoin="round"><title>Spore 3</title></path>
</g>
<g data-name="Typography">
<text x="912" y="859" font-family="Arial, Helvetica, sans-serif" font-weight="400" font-size="10" fill="#686E6A">24 px</text>
</g>
<g data-name="10 / Size 32">
<path d="M 1018 806.52 L 1018 810.04" fill="none" stroke="#1D1D1F" stroke-width="3.2" stroke-linecap="round" stroke-linejoin="round"><title>Top capsule</title></path>
<path d="M 1007.12 813.56 L 1013.52 813.56" fill="none" stroke="#1D1D1F" stroke-width="3.2" stroke-linecap="round" stroke-linejoin="round"><title>Beam capsule left</title></path>
<path d="M 1022.48 813.56 L 1028.88 813.56" fill="none" stroke="#1D1D1F" stroke-width="3.2" stroke-linecap="round" stroke-linejoin="round"><title>Beam capsule right</title></path>
<path d="M 1018 814.84 L 1018 825.08" fill="none" stroke="#1D1D1F" stroke-width="3.2" stroke-linecap="round" stroke-linejoin="round"><title>Central capsule</title></path>
<path d="M 1013.2 818.36 L 1006.8 824.12" fill="none" stroke="#1D1D1F" stroke-width="3.2" stroke-linecap="round" stroke-linejoin="round"><title>Left capsule</title></path>
<path d="M 1022.8 818.36 L 1029.2 824.12" fill="none" stroke="#1D1D1F" stroke-width="3.2" stroke-linecap="round" stroke-linejoin="round"><title>Right capsule</title></path>
<path d="M 1007.76 829.88 L 1008.4 831.8" fill="none" stroke="#1D1D1F" stroke-width="2.56" stroke-linecap="round" stroke-linejoin="round"><title>Spore 0</title></path>
<path d="M 1014.48 829.88 L 1015.12 831.8" fill="none" stroke="#1D1D1F" stroke-width="2.56" stroke-linecap="round" stroke-linejoin="round"><title>Spore 1</title></path>
<path d="M 1021.2 829.88 L 1021.84 831.8" fill="none" stroke="#1D1D1F" stroke-width="2.56" stroke-linecap="round" stroke-linejoin="round"><title>Spore 2</title></path>
<path d="M 1027.92 829.88 L 1028.56 831.8" fill="none" stroke="#1D1D1F" stroke-width="2.56" stroke-linecap="round" stroke-linejoin="round"><title>Spore 3</title></path>
</g>
<g data-name="Typography">
<text x="1002" y="859" font-family="Arial, Helvetica, sans-serif" font-weight="400" font-size="10" fill="#686E6A">32 px</text>
</g>
<g data-name="10 / Size 48">
<path d="M 1116 792.28 L 1116 797.56" fill="none" stroke="#1D1D1F" stroke-width="4.8" stroke-linecap="round" stroke-linejoin="round"><title>Top capsule</title></path>
<path d="M 1099.68 802.84 L 1109.28 802.84" fill="none" stroke="#1D1D1F" stroke-width="4.8" stroke-linecap="round" stroke-linejoin="round"><title>Beam capsule left</title></path>
<path d="M 1122.72 802.84 L 1132.32 802.84" fill="none" stroke="#1D1D1F" stroke-width="4.8" stroke-linecap="round" stroke-linejoin="round"><title>Beam capsule right</title></path>
<path d="M 1116 804.76 L 1116 820.12" fill="none" stroke="#1D1D1F" stroke-width="4.8" stroke-linecap="round" stroke-linejoin="round"><title>Central capsule</title></path>
<path d="M 1108.8 810.04 L 1099.2 818.68" fill="none" stroke="#1D1D1F" stroke-width="4.8" stroke-linecap="round" stroke-linejoin="round"><title>Left capsule</title></path>
<path d="M 1123.2 810.04 L 1132.8 818.68" fill="none" stroke="#1D1D1F" stroke-width="4.8" stroke-linecap="round" stroke-linejoin="round"><title>Right capsule</title></path>
<path d="M 1100.64 827.32 L 1101.6 830.2" fill="none" stroke="#1D1D1F" stroke-width="3.84" stroke-linecap="round" stroke-linejoin="round"><title>Spore 0</title></path>
<path d="M 1110.72 827.32 L 1111.68 830.2" fill="none" stroke="#1D1D1F" stroke-width="3.84" stroke-linecap="round" stroke-linejoin="round"><title>Spore 1</title></path>
<path d="M 1120.8 827.32 L 1121.76 830.2" fill="none" stroke="#1D1D1F" stroke-width="3.84" stroke-linecap="round" stroke-linejoin="round"><title>Spore 2</title></path>
<path d="M 1130.88 827.32 L 1131.84 830.2" fill="none" stroke="#1D1D1F" stroke-width="3.84" stroke-linecap="round" stroke-linejoin="round"><title>Spore 3</title></path>
</g>
<g data-name="Typography">
<text x="1092" y="859" font-family="Arial, Helvetica, sans-serif" font-weight="400" font-size="10" fill="#686E6A">48 px</text>
<text x="1187" y="796" font-family="Arial Unicode MS, Hiragino Sans GB, sans-serif" font-weight="400" font-size="13" fill="#686E6A">更具探索性。识字性较弱，适合先作为辅</text>
<text x="1187" y="818" font-family="Arial Unicode MS, Hiragino Sans GB, sans-serif" font-weight="400" font-size="13" fill="#686E6A">助图形。</text>
</g>
</svg>