<svg xmlns="http://www.w3.org/2000/svg" width="100" height="100" viewBox="0 0 100 100">
<title>03 / micro</title>
<g data-name="03 / 圆线 / Monoline">
<path d="M 17 28 L 83 28" fill="none" stroke="#1D1D1F" stroke-width="10.0" stroke-linecap="round" stroke-linejoin="round"><title>Crossbar</title></path>
<path d="M 50 10 L 50 68" fill="none" stroke="#1D1D1F" stroke-width="10.0" stroke-linecap="round" stroke-linejoin="round"><title>Stem</title></path>
<path d="M 47 36 C 39 47 26 58 13 65" fill="none" stroke="#1D1D1F" stroke-width="10.0" stroke-linecap="round" stroke-linejoin="round"><title>Left diagonal</title></path>
<path d="M 53 36 C 61 47 74 59 87 65" fill="none" stroke="#1D1D1F" stroke-width="10.0" stroke-linecap="round" stroke-linejoin="round"><title>Right diagonal</title></path>
<path d="M 24.3 86 C 24.3 88.9271 21.9271 91.3 19 91.3 C 16.0729 91.3 13.7 88.9271 13.7 86 C 13.7 83.0729 16.0729 80.7 19 80.7 C 21.9271 80.7 24.3 83.0729 24.3 86 Z" fill="#1D1D1F" stroke="none" stroke-width="0.0" stroke-linecap="butt" stroke-linejoin="round"><title>Round point 1</title></path>
<path d="M 45.3 86 C 45.3 88.9271 42.9271 91.3 40 91.3 C 37.0729 91.3 34.7 88.9271 34.7 86 C 34.7 83.0729 37.0729 80.7 40 80.7 C 42.9271 80.7 45.3 83.0729 45.3 86 Z" fill="#1D1D1F" stroke="none" stroke-width="0.0" stroke-linecap="butt" stroke-linejoin="round"><title>Round point 2</title></path>
<path d="M 66.3 86 C 66.3 88.9271 63.9271 91.3 61 91.3 C 58.0729 91.3 55.7 88.9271 55.7 86 C 55.7 83.0729 58.0729 80.7 61 80.7 C 63.9271 80.7 66.3 83.0729 66.3 86 Z" fill="#1D1D1F" stroke="none" stroke-width="0.0" stroke-linecap="butt" stroke-linejoin="round"><title>Round point 3</title></path>
<path d="M 87.3 86 C 87.3 88.9271 84.9271 91.3 82 91.3 C 79.0729 91.3 76.7 88.9271 76.7 86 C 76.7 83.0729 79.0729 80.7 82 80.7 C 84.9271 80.7 87.3 83.0729 87.3 86 Z" fill="#1D1D1F" stroke="none" stroke-width="0.0" stroke-linecap="butt" stroke-linejoin="round"><title>Round point 4</title></path>
</g>
</svg>