<svg xmlns="http://www.w3.org/2000/svg" width="100" height="100" viewBox="0 0 100 100">
<title>05 / 文脉 / Editorial</title>
<g data-name="05 / 文脉 / Editorial">
<path d="M 39 9 L 58 7 L 56 13 L 56 73 L 44 73 L 45 14 L 39 13 Z" fill="#1D1D1F" stroke="none" stroke-width="0.0" stroke-linecap="butt" stroke-linejoin="round"><title>Stem with restrained wedge</title></path>
<path d="M 13 27 L 76 27 L 83 20 L 91 31 L 13 31 Z" fill="#1D1D1F" stroke="none" stroke-width="0.0" stroke-linecap="butt" stroke-linejoin="round"><title>Hairline and terminal</title></path>
<path d="M 44 33 L 52 37 C 40 55 24 66 8 72 L 6 69 C 22 58 36 45 44 33 Z" fill="#1D1D1F" stroke="none" stroke-width="0.0" stroke-linecap="butt" stroke-linejoin="round"><title>Left branch</title></path>
<path d="M 56 34 C 65 44 76 54 95 61 L 84 73 C 70 61 61 49 54 37 Z" fill="#1D1D1F" stroke="none" stroke-width="0.0" stroke-linecap="butt" stroke-linejoin="round"><title>Right branch</title></path>
<path d="M 21 80 L 25 81 C 24 89 20 97 13 96 C 9 91 15 86 21 80 Z" fill="#1D1D1F" stroke="none" stroke-width="0.0" stroke-linecap="butt" stroke-linejoin="round"><title>Dot 1</title></path>
<path d="M 39 81 C 45 83 51 90 46 97 C 39 98 41 90 37 82 Z" fill="#1D1D1F" stroke="none" stroke-width="0.0" stroke-linecap="butt" stroke-linejoin="round"><title>Dot 2</title></path>
<path d="M 59 79 C 68 82 74 88 70 95 C 63 99 63 86 57 81 Z" fill="#1D1D1F" stroke="none" stroke-width="0.0" stroke-linecap="butt" stroke-linejoin="round"><title>Dot 3</title></path>
<path d="M 78 76 C 89 78 97 84 94 91 C 87 98 83 83 77 79 Z" fill="#1D1D1F" stroke="none" stroke-width="0.0" stroke-linecap="butt" stroke-linejoin="round"><title>Dot 4</title></path>
</g>
</svg>