<svg xmlns="http://www.w3.org/2000/svg" width="100" height="100" viewBox="0 0 100 100">
<title>11 / 分岔 / Possibility</title>
<g data-name="11 / 分岔 / Possibility">
<path d="M 44 64 L 44 49 C 44 39 37 33 27 30 L 10 24 L 14 12 L 31 18 C 40 21 46 26 50 32 C 55 24 62 20 71 17 L 86 12 L 90 24 L 74 30 C 63 33 56 39 56 49 L 56 64 Z" fill="#FFFFFF" stroke="none" stroke-width="0.0" stroke-linecap="butt" stroke-linejoin="round"><title>Possibility / fork</title></path>
<path d="M 23 85 C 23 88.3137 20.3137 91 17 91 C 13.6863 91 11 88.3137 11 85 C 11 81.6863 13.6863 79 17 79 C 20.3137 79 23 81.6863 23 85 Z" fill="#FFFFFF" stroke="none" stroke-width="0.0" stroke-linecap="butt" stroke-linejoin="round"><title>Point 0</title></path>
<path d="M 45 85 C 45 88.3137 42.3137 91 39 91 C 35.6863 91 33 88.3137 33 85 C 33 81.6863 35.6863 79 39 79 C 42.3137 79 45 81.6863 45 85 Z" fill="#FFFFFF" stroke="none" stroke-width="0.0" stroke-linecap="butt" stroke-linejoin="round"><title>Point 1</title></path>
<path d="M 67 85 C 67 88.3137 64.3137 91 61 91 C 57.6863 91 55 88.3137 55 85 C 55 81.6863 57.6863 79 61 79 C 64.3137 79 67 81.6863 67 85 Z" fill="#FFFFFF" stroke="none" stroke-width="0.0" stroke-linecap="butt" stroke-linejoin="round"><title>Point 2</title></path>
<path d="M 89 85 C 89 88.3137 86.3137 91 83 91 C 79.6863 91 77 88.3137 77 85 C 77 81.6863 79.6863 79 83 79 C 86.3137 79 89 81.6863 89 85 Z" fill="#FFFFFF" stroke="none" stroke-width="0.0" stroke-linecap="butt" stroke-linejoin="round"><title>Point 3</title></path>
</g>
</svg>