<svg xmlns="http://www.w3.org/2000/svg" version="1.1" xmlns:xlink="http://www.w3.org/1999/xlink" xmlns:svgjs="http://svgjs.dev/svgjs" viewBox="0 0 800 800" opacity="1"><g fill="none" stroke-width="3.25" stroke="hsl(265, 55%, 20%)" stroke-linecap="round"><line x1="296" y1="400" x2="504" y2="400" transform="rotate(0, 400, 400)" opacity="0.78"></line><line x1="602.5" y1="400" x2="197.5" y2="400" transform="rotate(7, 400, 400)" opacity="0.97"></line><line x1="291.5" y1="400" x2="508.5" y2="400" transform="rotate(14, 400, 400)" opacity="0.69"></line><line x1="662.5" y1="400" x2="137.5" y2="400" transform="rotate(21, 400, 400)" opacity="0.12"></line><line x1="418" y1="400" x2="382" y2="400" transform="rotate(28, 400, 400)" opacity="0.61"></line><line x1="-29" y1="400" x2="829" y2="400" transform="rotate(35, 400, 400)" opacity="0.16"></line><line x1="720" y1="400" x2="80" y2="400" transform="rotate(42, 400, 400)" opacity="0.98"></line><line x1="329" y1="400" x2="471" y2="400" transform="rotate(49, 400, 400)" opacity="0.29"></line><line x1="362.5" y1="400" x2="437.5" y2="400" transform="rotate(56, 400, 400)" opacity="0.31"></line><line x1="163.5" y1="400" x2="636.5" y2="400" transform="rotate(63, 400, 400)" opacity="0.15"></line><line x1="240" y1="400" x2="560" y2="400" transform="rotate(70, 400, 400)" opacity="0.29"></line><line x1="686.5" y1="400" x2="113.5" y2="400" transform="rotate(77, 400, 400)" opacity="0.89"></line><line x1="102" y1="400" x2="698" y2="400" transform="rotate(84, 400, 400)" opacity="0.48"></line><line x1="536.5" y1="400" x2="263.5" y2="400" transform="rotate(91, 400, 400)" opacity="0.30"></line><line x1="591" y1="400" x2="209" y2="400" transform="rotate(98, 400, 400)" opacity="0.39"></line><line x1="531.5" y1="400" x2="268.5" y2="400" transform="rotate(105, 400, 400)" opacity="0.74"></line><line x1="734.5" y1="400" x2="65.5" y2="400" transform="rotate(112, 400, 400)" opacity="0.62"></line><line x1="703" y1="400" x2="97" y2="400" transform="rotate(119, 400, 400)" opacity="0.64"></line><line x1="630.5" y1="400" x2="169.5" y2="400" transform="rotate(126, 400, 400)" opacity="0.72"></line><line x1="45" y1="400" x2="755" y2="400" transform="rotate(133, 400, 400)" opacity="0.75"></line><line x1="565.5" y1="400" x2="234.5" y2="400" transform="rotate(140, 400, 400)" opacity="0.12"></line><line x1="230.5" y1="400" x2="569.5" y2="400" transform="rotate(147, 400, 400)" opacity="0.95"></line><line x1="-12.5" y1="400" x2="812.5" y2="400" transform="rotate(154, 400, 400)" opacity="0.30"></line><line x1="-33" y1="400" x2="833" y2="400" transform="rotate(161, 400, 400)" opacity="0.61"></line><line x1="35.5" y1="400" x2="764.5" y2="400" transform="rotate(168, 400, 400)" opacity="0.41"></line><line x1="214" y1="400" x2="586" y2="400" transform="rotate(175, 400, 400)" opacity="0.25"></line><line x1="578" y1="400" x2="222" y2="400" transform="rotate(182, 400, 400)" opacity="0.24"></line><line x1="442" y1="400" x2="358" y2="400" transform="rotate(189, 400, 400)" opacity="0.58"></line><line x1="724" y1="400" x2="76" y2="400" transform="rotate(196, 400, 400)" opacity="0.61"></line><line x1="637" y1="400" x2="163" y2="400" transform="rotate(203, 400, 400)" opacity="0.42"></line><line x1="385" y1="400" x2="415" y2="400" transform="rotate(210, 400, 400)" opacity="0.90"></line><line x1="468" y1="400" x2="332" y2="400" transform="rotate(217, 400, 400)" opacity="0.62"></line><line x1="354.5" y1="400" x2="445.5" y2="400" transform="rotate(224, 400, 400)" opacity="0.07"></line><line x1="332.5" y1="400" x2="467.5" y2="400" transform="rotate(231, 400, 400)" opacity="0.71"></line><line x1="441" y1="400" x2="359" y2="400" transform="rotate(238, 400, 400)" opacity="0.71"></line><line x1="59" y1="400" x2="741" y2="400" transform="rotate(245, 400, 400)" opacity="0.15"></line><line x1="513" y1="400" x2="287" y2="400" transform="rotate(252, 400, 400)" opacity="0.44"></line><line x1="232.5" y1="400" x2="567.5" y2="400" transform="rotate(259, 400, 400)" opacity="0.81"></line><line x1="-36.5" y1="400" x2="836.5" y2="400" transform="rotate(266, 400, 400)" opacity="0.82"></line><line x1="656" y1="400" x2="144" y2="400" transform="rotate(273, 400, 400)" opacity="0.39"></line><line x1="230" y1="400" x2="570" y2="400" transform="rotate(280, 400, 400)" opacity="0.99"></line><line x1="262" y1="400" x2="538" y2="400" transform="rotate(287, 400, 400)" opacity="0.63"></line><line x1="367.5" y1="400" x2="432.5" y2="400" transform="rotate(294, 400, 400)" opacity="0.78"></line><line x1="76.5" y1="400" x2="723.5" y2="400" transform="rotate(301, 400, 400)" opacity="0.88"></line><line x1="29" y1="400" x2="771" y2="400" transform="rotate(308, 400, 400)" opacity="0.27"></line><line x1="717" y1="400" x2="83" y2="400" transform="rotate(315, 400, 400)" opacity="0.64"></line><line x1="576" y1="400" x2="224" y2="400" transform="rotate(322, 400, 400)" opacity="0.26"></line><line x1="41" y1="400" x2="759" y2="400" transform="rotate(329, 400, 400)" opacity="0.75"></line><line x1="529.5" y1="400" x2="270.5" y2="400" transform="rotate(336, 400, 400)" opacity="0.24"></line><line x1="249" y1="400" x2="551" y2="400" transform="rotate(343, 400, 400)" opacity="0.69"></line><line x1="14" y1="400" x2="786" y2="400" transform="rotate(350, 400, 400)" opacity="0.20"></line><line x1="229.5" y1="400" x2="570.5" y2="400" transform="rotate(357, 400, 400)" opacity="0.48"></line><line x1="386.5" y1="400" x2="413.5" y2="400" transform="rotate(364, 400, 400)" opacity="0.89"></line></g></svg>